<svg xmlns="http://www.w3.org/2000/svg" viewBox="0 0 128 128" role="img" aria-labelledby="title desc">
  <title id="title">Janrenzo Facto JF monogram</title>
  <desc id="desc">A black and lime personal brand icon combining Janrenzo Facto initials.</desc>
  <defs>
    <linearGradient id="limeGlow" x1="18" y1="12" x2="110" y2="116" gradientUnits="userSpaceOnUse">
      <stop offset="0" stop-color="#f4ff6a" />
      <stop offset="0.5" stop-color="#a3e635" />
      <stop offset="1" stop-color="#65a30d" />
    </linearGradient>
    <radialGradient id="softLight" cx="34" cy="24" r="92" gradientUnits="userSpaceOnUse">
      <stop offset="0" stop-color="#ffffff" stop-opacity="0.28" />
      <stop offset="0.42" stop-color="#a3e635" stop-opacity="0.12" />
      <stop offset="1" stop-color="#000000" stop-opacity="0" />
    </radialGradient>
  </defs>
  <rect width="128" height="128" rx="30" fill="#050605" />
  <rect x="7" y="7" width="114" height="114" rx="26" fill="url(#softLight)" />
  <path d="M18 95V35c0-9.4 7.6-17 17-17h75v75c0 9.4-7.6 17-17 17H18Z" fill="none" stroke="url(#limeGlow)" stroke-width="6" />
  <path d="M43 35h18v47c0 15-9.8 24-25.4 24-5.3 0-10-1-14.1-3.1l4.2-14.1c2.7 1.4 5.7 2.1 9 2.1 5.5 0 8.3-3.2 8.3-9.4V35Z" fill="#d9ff45" />
  <path d="M72 35h36v15H89.8v13.7h15.8v14.4H89.8V105H72V35Z" fill="#ffffff" />
  <path d="M94 22h21v21" fill="none" stroke="#d9ff45" stroke-linecap="round" stroke-linejoin="round" stroke-width="5" />
</svg>
